<mxfile host="app.diagrams.net" modified="2021-10-17T11:12:33.286Z" agent="5.0 (Windows NT 10.0; Win64; x64) AppleWebKit/537.36 (KHTML, like Gecko) Chrome/94.0.4606.81 Safari/537.36" etag="D_bWrav9Xy16A8GkroJ1" version="15.5.0" type="github">
  <diagram id="F7ItXqJGRJmKf3B11FEE" name="Page-1">
    <mxGraphModel dx="1038" dy="556" grid="1" gridSize="10" guides="1" tooltips="1" connect="1" arrows="1" fold="1" page="1" pageScale="1" pageWidth="850" pageHeight="1100" math="0" shadow="0">
      <root>
        <mxCell id="0" />
        <mxCell id="1" parent="0" />
        <mxCell id="JOUDGP8wdA08YXYUOnpO-53" style="edgeStyle=none;rounded=0;orthogonalLoop=1;jettySize=auto;html=1;" edge="1" parent="1">
          <mxGeometry relative="1" as="geometry">
            <mxPoint x="515" y="67.38999999999999" as="targetPoint" />
            <mxPoint x="458.83000000000015" y="67.38999999999999" as="sourcePoint" />
          </mxGeometry>
        </mxCell>
        <mxCell id="JOUDGP8wdA08YXYUOnpO-28" value="" style="verticalLabelPosition=bottom;html=1;verticalAlign=top;align=center;strokeColor=none;fillColor=#000000;shape=mxgraph.azure.cloud_services_configuration_file;pointerEvents=1;opacity=20;" vertex="1" parent="1">
          <mxGeometry x="425.18" y="52.390000000000015" width="26.65" height="30" as="geometry" />
        </mxCell>
        <mxCell id="JOUDGP8wdA08YXYUOnpO-9" value="Kubernetes" style="rounded=1;whiteSpace=wrap;html=1;" vertex="1" parent="1">
          <mxGeometry x="518" y="215.35" width="169" height="70" as="geometry" />
        </mxCell>
        <mxCell id="JOUDGP8wdA08YXYUOnpO-1" value="" style="sketch=0;aspect=fixed;html=1;points=[];align=center;image;fontSize=12;image=img/lib/mscae/Kubernetes.svg;" vertex="1" parent="1">
          <mxGeometry x="652" y="250.63" width="32" height="30.72" as="geometry" />
        </mxCell>
        <mxCell id="JOUDGP8wdA08YXYUOnpO-51" style="edgeStyle=none;rounded=0;orthogonalLoop=1;jettySize=auto;html=1;" edge="1" parent="1">
          <mxGeometry relative="1" as="geometry">
            <mxPoint x="512" y="240.35000000000002" as="targetPoint" />
            <mxPoint x="461.51" y="240.35000000000002" as="sourcePoint" />
          </mxGeometry>
        </mxCell>
        <mxCell id="JOUDGP8wdA08YXYUOnpO-4" value="" style="shape=image;html=1;verticalAlign=top;verticalLabelPosition=bottom;labelBackgroundColor=#ffffff;imageAspect=0;aspect=fixed;image=https://cdn0.iconfinder.com/data/icons/analytic-investment-and-balanced-scorecard/512/190_product_release__Business_modern_product_release-128.png;opacity=50;" vertex="1" parent="1">
          <mxGeometry x="419.51" y="221.35" width="38" height="38" as="geometry" />
        </mxCell>
        <mxCell id="JOUDGP8wdA08YXYUOnpO-48" style="edgeStyle=none;rounded=0;orthogonalLoop=1;jettySize=auto;html=1;" edge="1" parent="1">
          <mxGeometry relative="1" as="geometry">
            <mxPoint x="243" y="70" as="targetPoint" />
            <mxPoint x="171" y="110" as="sourcePoint" />
          </mxGeometry>
        </mxCell>
        <mxCell id="JOUDGP8wdA08YXYUOnpO-49" style="edgeStyle=none;rounded=0;orthogonalLoop=1;jettySize=auto;html=1;" edge="1" parent="1">
          <mxGeometry relative="1" as="geometry">
            <mxPoint x="242" y="248" as="targetPoint" />
            <mxPoint x="162.58823529411757" y="198" as="sourcePoint" />
          </mxGeometry>
        </mxCell>
        <mxCell id="JOUDGP8wdA08YXYUOnpO-8" value="Helm Client" style="rounded=1;whiteSpace=wrap;html=1;" vertex="1" parent="1">
          <mxGeometry x="28" y="117" width="150" height="70" as="geometry" />
        </mxCell>
        <mxCell id="JOUDGP8wdA08YXYUOnpO-6" value="" style="shape=image;imageAspect=0;aspect=fixed;verticalLabelPosition=bottom;verticalAlign=top;image=data:image/svg+xml,PHN2ZyB4bWxucz0iaHR0cDovL3d3dy53My5vcmcvMjAwMC9zdmciIHhtbG5zOnhsaW5rPSJodHRwOi8vd3d3LnczLm9yZy8xOTk5L3hsaW5rIiBoZWlnaHQ9IjM0OS44NzY2Nzg0NjY3OTY5IiB2aWV3Qm94PSIwLjY3ODU3MTcwMTA0OTgwNDcgMC4zMzE5Mzk2OTcyNjU2MjUgMzAyLjUxMjQyMDY1NDI5NjkgMzQ5Ljg3NjY3ODQ2Njc5NjkiIHdpZHRoPSIzMDIuNTEyNDIwNjU0Mjk2OSI+JiN4YTs8bWFzayBpZD0iYSIgZmlsbD0iI2ZmZiI+JiN4YTs8cGF0aCBkPSJtMCAwaDMxMy4zMDMxNTV2MTU5Ljg2NDg2NWgtMzEzLjMwMzE1NXoiIGZpbGw9IiNmZmYiIGZpbGwtcnVsZT0iZXZlbm9kZCIvPiYjeGE7PC9tYXNrPiYjeGE7PG1hc2sgaWQ9ImIiIGZpbGw9IiNmZmYiPiYjeGE7PHBhdGggZD0ibTAgMGgzMTMuMzAzMTU1djE1OS44NjQ4NjVoLTMxMy4zMDMxNTV6IiBmaWxsPSIjZmZmIiBmaWxsLXJ1bGU9ImV2ZW5vZGQiLz4mI3hhOzwvbWFzaz4mI3hhOzxnIGZpbGw9Im5vbmUiIGZpbGwtcnVsZT0iZXZlbm9kZCIgdHJhbnNmb3JtPSJ0cmFuc2xhdGUoLTExIC01MSkiPiYjeGE7PHBhdGggZD0ibTExLjY3ODU3MTQgMTg5aDE5Ljc4NTgzNTd2MjYuNzg5aDIzLjkwMzd2LTI2Ljc4OWgxOS43ODU4MzU4djc1LjI1aC0xOS43ODU4MzU4di0yOC42OTUzMzNoLTIzLjkwMzd2MjguNjk1MzMzaC0xOS43ODU4MzU3em04Ni4xNzM4NDI5IDc1LjI1di03NS4yNWg0Ni44MDMwNDI3djE2LjM1NDMzM2gtMjcuMDE3MjA3djEyLjI0MDY2N2gyMy45MDM3djE2LjY1NTMzM2gtMjMuOTAzN3YxMy44NDZoMjcuMDE3MjA3djE2LjE1MzY2N3ptNjguNDk3MTU2NyAwdi03NS4yNWgxOS43ODU4MzZ2NTUuMzg0aDI3LjExNzY0M3YxOS44NjZ6bTc3LjUzNjM3Mi03NS4yNSAzMC43MzMzMjggMjcuODkyNjY3IDMwLjYzMjg5My0yNy44OTI2NjdoOC45Mzg3Nzl2NzUuMjVoLTE5Ljg4NjI3MnYtMzguNjI4MzMzbC0xOS42ODU0IDE3Ljk1OTY2Ni0xOS43ODU4MzUtMTcuODU5MzMzdjM4LjUyOGgtMTkuODg2Mjcydi03NS4yNXoiIGZpbGw9IiMwZjE2ODkiLz4mI3hhOzxnIHRyYW5zZm9ybT0ibWF0cml4KDEgMCAwIC0xIDExLjk1ODEzNiA0NTUpIj4mI3hhOzxnIGZpbGw9IiMwZjE2ODkiIG1hc2s9InVybCgjYSkiPiYjeGE7PHBhdGggZD0ibTIwMy40NjA2NzYgOTUuNjg3NTQyNWM2LjkzNjMxIDAgMTIuNTU5MzAxLTE0LjgwOTIxOTQgMTIuNTU5MzAxLTMzLjA3NzMxNzJzLTUuNjIyOTkxLTMzLjA3NzMxNzItMTIuNTU5MzAxLTMzLjA3NzMxNzJjLTYuOTM2MzExIDAtMTIuNTU5MzAxIDE0LjgwOTIxOTQtMTIuNTU5MzAxIDMzLjA3NzMxNzJzNS42MjI5OSAzMy4wNzczMTcyIDEyLjU1OTMwMSAzMy4wNzczMTcyeiIgdHJhbnNmb3JtPSJtYXRyaXgoLjgxOTE1MjA0IC41NzM1NzY0NCAtLjU3MzU3NjQ0IC44MTkxNTIwNCAxMTEuODcwMDkxIC01MS43MDY1NTYpIi8+JiN4YTs8cGF0aCBkPSJtMzAuMTQyMzIyMyA5NS42ODc1NDI1YzYuOTM2MzEwNCAwIDEyLjU1OTMwMS0xNC44MDkyMTk0IDEyLjU1OTMwMS0zMy4wNzczMTcycy01LjYyMjk5MDYtMzMuMDc3MzE3Mi0xMi41NTkzMDEtMzMuMDc3MzE3Mi0xMi41NTkzMDA5IDE0LjgwOTIxOTQtMTIuNTU5MzAwOSAzMy4wNzczMTcyIDUuNjIyOTkwNSAzMy4wNzczMTcyIDEyLjU1OTMwMDkgMzMuMDc3MzE3MnoiIHRyYW5zZm9ybT0ibWF0cml4KC0uODE5MTUyMDQgLjU3MzU3NjQ0IC41NzM1NzY0NCAuODE5MTUyMDQgNTguMDg0NjExIDQ3LjcwNDc2OCkiLz4mI3hhOzxwYXRoIGQ9Im0xMTYuNzMyODE1IDY2LjI3NTI2NzZjNi45MzYzMTEgMCAxMi41NTkzMDEtMTQuODA5MjE5MyAxMi41NTkzMDEtMzMuMDc3MzE3MiAwLTE4LjI2ODA5NzgtNS42MjI5OS0zMy4wNzczMTcxMy0xMi41NTkzMDEtMzMuMDc3MzE3MTMtNi45MzYzMSAwLTEyLjU1OTMwMSAxNC44MDkyMTkzMy0xMi41NTkzMDEgMzMuMDc3MzE3MTMgMCAxOC4yNjgwOTc5IDUuNjIyOTkxIDMzLjA3NzMxNzIgMTIuNTU5MzAxIDMzLjA3NzMxNzJ6IiB0cmFuc2Zvcm09Im1hdHJpeCgtMSAwIDAgMSAyNzIuNjI4NTI0IDUzLjY3MDc2MikiLz4mI3hhOzwvZz4mI3hhOzxwYXRoIGQ9Im0yNTEuNDY3MDA2IDE3My4wOTk4NDljLTIwLjIzMDA3Ni0zMy42MDk5NjktNTYuODg5NTY1LTU2LjA2NzkwOC05OC43NTU3NzYtNTYuMDY3OTA4LTQwLjcyMDc5OCAwLTc2LjUxNTg3NjYgMjEuMjQ1OTAxLTk3LjA1ODY5NTkgNTMuMzM0NTg4bTIuMTk4MTEwNyAxMjkuMTY5NTM0YzIwLjg0MDMwMzYgMzAuMjMyNzAxIDU1LjU1NTkwNDIgNTAuMDI2NTkxIDk0Ljg2MDU4NTIgNTAuMDI2NTkxIDM5LjM3NjA5OSAwIDc0LjE0NjQyNC0xOS44NjU4ODcgOTQuOTc0MDQ5LTUwLjE5MTQ5NSIgbWFzaz0idXJsKCNhKSIgc3Ryb2tlPSIjMGYxNjg5IiBzdHJva2Utd2lkdGg9IjIwIi8+JiN4YTs8L2c+JiN4YTs8ZyB0cmFuc2Zvcm09InRyYW5zbGF0ZSgxMS45NTgxMzYpIj4mI3hhOzxnIGZpbGw9IiMwZjE2ODkiIG1hc2s9InVybCgjYikiPiYjeGE7PHBhdGggZD0ibTIwMy40NjA2NzYgOTUuNjg3NTQyNWM2LjkzNjMxIDAgMTIuNTU5MzAxLTE0LjgwOTIxOTQgMTIuNTU5MzAxLTMzLjA3NzMxNzJzLTUuNjIyOTkxLTMzLjA3NzMxNzItMTIuNTU5MzAxLTMzLjA3NzMxNzJjLTYuOTM2MzExIDAtMTIuNTU5MzAxIDE0LjgwOTIxOTQtMTIuNTU5MzAxIDMzLjA3NzMxNzJzNS42MjI5OSAzMy4wNzczMTcyIDEyLjU1OTMwMSAzMy4wNzczMTcyeiIgdHJhbnNmb3JtPSJtYXRyaXgoLjgxOTE1MjA0IC41NzM1NzY0NCAtLjU3MzU3NjQ0IC44MTkxNTIwNCAxMTEuODcwMDkxIC01NC4xNjYwMTYpIi8+JiN4YTs8cGF0aCBkPSJtMzAuMTQyMzIyMyA5NS42ODc1NDI1YzYuOTM2MzEwNCAwIDEyLjU1OTMwMS0xNC44MDkyMTk0IDEyLjU1OTMwMS0zMy4wNzczMTcycy01LjYyMjk5MDYtMzMuMDc3MzE3Mi0xMi41NTkzMDEtMzMuMDc3MzE3Mi0xMi41NTkzMDA5IDE0LjgwOTIxOTQtMTIuNTU5MzAwOSAzMy4wNzczMTcyIDUuNjIyOTkwNSAzMy4wNzczMTcyIDEyLjU1OTMwMDkgMzMuMDc3MzE3MnoiIHRyYW5zZm9ybT0ibWF0cml4KC0uODE5MTUyMDQgLjU3MzU3NjQ0IC41NzM1NzY0NCAuODE5MTUyMDQgNTguMDg0NjExIDQ1LjI0NTMwOCkiLz4mI3hhOzxwYXRoIGQ9Im0xMTYuNzMyODE1IDY2LjI3NTI2NzZjNi45MzYzMTEgMCAxMi41NTkzMDEtMTQuODA5MjE5MyAxMi41NTkzMDEtMzMuMDc3MzE3MiAwLTE4LjI2ODA5NzgtNS42MjI5OS0zMy4wNzczMTcxMy0xMi41NTkzMDEtMzMuMDc3MzE3MTMtNi45MzYzMSAwLTEyLjU1OTMwMSAxNC44MDkyMTkzMy0xMi41NTkzMDEgMzMuMDc3MzE3MTMgMCAxOC4yNjgwOTc5IDUuNjIyOTkxIDMzLjA3NzMxNzIgMTIuNTU5MzAxIDMzLjA3NzMxNzJ6IiB0cmFuc2Zvcm09Im1hdHJpeCgtMSAwIDAgMSAyNzIuNjI4NTI0IDUxLjIxMTMwMikiLz4mI3hhOzwvZz4mI3hhOzxwYXRoIGQ9Im0yNTEuNDY3MDA2IDE3MC42NDAzOWMtMjAuMjMwMDc2LTMzLjYwOTk2OS01Ni44ODk1NjUtNTYuMDY3OTA4LTk4Ljc1NTc3Ni01Ni4wNjc5MDgtNDAuNzIwNzk4IDAtNzYuNTE1ODc2NiAyMS4yNDU5LTk3LjA1ODY5NTkgNTMuMzM0NTg3bTIuMTk4MTEwNyAxMjkuMTY5NTM0YzIwLjg0MDMwMzYgMzAuMjMyNzAyIDU1LjU1NTkwNDIgNTAuMDI2NTkxIDk0Ljg2MDU4NTIgNTAuMDI2NTkxIDM5LjM3NjA5OSAwIDc0LjE0NjQyNC0xOS44NjU4ODYgOTQuOTc0MDQ5LTUwLjE5MTQ5NCIgbWFzaz0idXJsKCNiKSIgc3Ryb2tlPSIjMGYxNjg5IiBzdHJva2Utd2lkdGg9IjIwIi8+JiN4YTs8L2c+JiN4YTs8L2c+JiN4YTs8L3N2Zz4=;" vertex="1" parent="1">
          <mxGeometry x="144" y="151.35" width="30" height="34.65" as="geometry" />
        </mxCell>
        <mxCell id="JOUDGP8wdA08YXYUOnpO-12" value="Chart Repository" style="rounded=1;whiteSpace=wrap;html=1;" vertex="1" parent="1">
          <mxGeometry x="518" y="39.68" width="169" height="70" as="geometry" />
        </mxCell>
        <mxCell id="JOUDGP8wdA08YXYUOnpO-11" value="" style="shadow=0;dashed=0;html=1;strokeColor=none;fillColor=#4495D1;labelPosition=center;verticalLabelPosition=bottom;verticalAlign=top;align=center;outlineConnect=0;shape=mxgraph.veeam.2d.backup_repository;" vertex="1" parent="1">
          <mxGeometry x="657" y="84.4" width="25" height="20" as="geometry" />
        </mxCell>
        <mxCell id="JOUDGP8wdA08YXYUOnpO-47" style="edgeStyle=none;rounded=0;orthogonalLoop=1;jettySize=auto;html=1;" edge="1" parent="1">
          <mxGeometry relative="1" as="geometry">
            <mxPoint x="418" y="68.95000000000005" as="targetPoint" />
            <mxPoint x="310" y="68.95000000000005" as="sourcePoint" />
          </mxGeometry>
        </mxCell>
        <mxCell id="JOUDGP8wdA08YXYUOnpO-3" value="" style="sketch=0;pointerEvents=1;shadow=0;dashed=0;html=1;strokeColor=none;fillColor=#434445;aspect=fixed;labelPosition=center;verticalLabelPosition=bottom;verticalAlign=top;align=center;outlineConnect=0;shape=mxgraph.vvd.template;opacity=70;" vertex="1" parent="1">
          <mxGeometry x="268" y="49.44" width="32" height="39.02" as="geometry" />
        </mxCell>
        <mxCell id="JOUDGP8wdA08YXYUOnpO-18" value="Templates &amp;amp; Values" style="text;html=1;strokeColor=none;fillColor=none;align=center;verticalAlign=middle;whiteSpace=wrap;rounded=0;" vertex="1" parent="1">
          <mxGeometry x="234.6" y="87" width="85" height="30" as="geometry" />
        </mxCell>
        <mxCell id="JOUDGP8wdA08YXYUOnpO-20" value="Helm Release" style="text;html=1;strokeColor=none;fillColor=none;align=center;verticalAlign=middle;whiteSpace=wrap;rounded=0;" vertex="1" parent="1">
          <mxGeometry x="399.01" y="251.35000000000002" width="79" height="30" as="geometry" />
        </mxCell>
        <mxCell id="JOUDGP8wdA08YXYUOnpO-21" value="Helm Chart" style="text;html=1;strokeColor=none;fillColor=none;align=center;verticalAlign=middle;whiteSpace=wrap;rounded=0;" vertex="1" parent="1">
          <mxGeometry x="399" y="84.38999999999999" width="79" height="30" as="geometry" />
        </mxCell>
        <mxCell id="JOUDGP8wdA08YXYUOnpO-23" value="" style="verticalLabelPosition=bottom;html=1;verticalAlign=top;align=center;strokeColor=none;fillColor=#000000;shape=mxgraph.azure.cloud_services_configuration_file;pointerEvents=1;opacity=20;" vertex="1" parent="1">
          <mxGeometry x="248" y="229.18" width="26.65" height="30" as="geometry" />
        </mxCell>
        <mxCell id="JOUDGP8wdA08YXYUOnpO-24" value="" style="shape=image;imageAspect=0;aspect=fixed;verticalLabelPosition=bottom;verticalAlign=top;image=data:image/svg+xml,PHN2ZyB4bWxucz0iaHR0cDovL3d3dy53My5vcmcvMjAwMC9zdmciIHhtbG5zOnhsaW5rPSJodHRwOi8vd3d3LnczLm9yZy8xOTk5L3hsaW5rIiBoZWlnaHQ9IjM0OS44NzY2Nzg0NjY3OTY5IiB2aWV3Qm94PSIwLjY3ODU3MTcwMTA0OTgwNDcgMC4zMzE5Mzk2OTcyNjU2MjUgMzAyLjUxMjQyMDY1NDI5NjkgMzQ5Ljg3NjY3ODQ2Njc5NjkiIHdpZHRoPSIzMDIuNTEyNDIwNjU0Mjk2OSI+JiN4YTs8bWFzayBpZD0iYSIgZmlsbD0iI2ZmZiI+JiN4YTs8cGF0aCBkPSJtMCAwaDMxMy4zMDMxNTV2MTU5Ljg2NDg2NWgtMzEzLjMwMzE1NXoiIGZpbGw9IiNmZmYiIGZpbGwtcnVsZT0iZXZlbm9kZCIvPiYjeGE7PC9tYXNrPiYjeGE7PG1hc2sgaWQ9ImIiIGZpbGw9IiNmZmYiPiYjeGE7PHBhdGggZD0ibTAgMGgzMTMuMzAzMTU1djE1OS44NjQ4NjVoLTMxMy4zMDMxNTV6IiBmaWxsPSIjZmZmIiBmaWxsLXJ1bGU9ImV2ZW5vZGQiLz4mI3hhOzwvbWFzaz4mI3hhOzxnIGZpbGw9Im5vbmUiIGZpbGwtcnVsZT0iZXZlbm9kZCIgdHJhbnNmb3JtPSJ0cmFuc2xhdGUoLTExIC01MSkiPiYjeGE7PHBhdGggZD0ibTExLjY3ODU3MTQgMTg5aDE5Ljc4NTgzNTd2MjYuNzg5aDIzLjkwMzd2LTI2Ljc4OWgxOS43ODU4MzU4djc1LjI1aC0xOS43ODU4MzU4di0yOC42OTUzMzNoLTIzLjkwMzd2MjguNjk1MzMzaC0xOS43ODU4MzU3em04Ni4xNzM4NDI5IDc1LjI1di03NS4yNWg0Ni44MDMwNDI3djE2LjM1NDMzM2gtMjcuMDE3MjA3djEyLjI0MDY2N2gyMy45MDM3djE2LjY1NTMzM2gtMjMuOTAzN3YxMy44NDZoMjcuMDE3MjA3djE2LjE1MzY2N3ptNjguNDk3MTU2NyAwdi03NS4yNWgxOS43ODU4MzZ2NTUuMzg0aDI3LjExNzY0M3YxOS44NjZ6bTc3LjUzNjM3Mi03NS4yNSAzMC43MzMzMjggMjcuODkyNjY3IDMwLjYzMjg5My0yNy44OTI2NjdoOC45Mzg3Nzl2NzUuMjVoLTE5Ljg4NjI3MnYtMzguNjI4MzMzbC0xOS42ODU0IDE3Ljk1OTY2Ni0xOS43ODU4MzUtMTcuODU5MzMzdjM4LjUyOGgtMTkuODg2Mjcydi03NS4yNXoiIGZpbGw9IiMwZjE2ODkiLz4mI3hhOzxnIHRyYW5zZm9ybT0ibWF0cml4KDEgMCAwIC0xIDExLjk1ODEzNiA0NTUpIj4mI3hhOzxnIGZpbGw9IiMwZjE2ODkiIG1hc2s9InVybCgjYSkiPiYjeGE7PHBhdGggZD0ibTIwMy40NjA2NzYgOTUuNjg3NTQyNWM2LjkzNjMxIDAgMTIuNTU5MzAxLTE0LjgwOTIxOTQgMTIuNTU5MzAxLTMzLjA3NzMxNzJzLTUuNjIyOTkxLTMzLjA3NzMxNzItMTIuNTU5MzAxLTMzLjA3NzMxNzJjLTYuOTM2MzExIDAtMTIuNTU5MzAxIDE0LjgwOTIxOTQtMTIuNTU5MzAxIDMzLjA3NzMxNzJzNS42MjI5OSAzMy4wNzczMTcyIDEyLjU1OTMwMSAzMy4wNzczMTcyeiIgdHJhbnNmb3JtPSJtYXRyaXgoLjgxOTE1MjA0IC41NzM1NzY0NCAtLjU3MzU3NjQ0IC44MTkxNTIwNCAxMTEuODcwMDkxIC01MS43MDY1NTYpIi8+JiN4YTs8cGF0aCBkPSJtMzAuMTQyMzIyMyA5NS42ODc1NDI1YzYuOTM2MzEwNCAwIDEyLjU1OTMwMS0xNC44MDkyMTk0IDEyLjU1OTMwMS0zMy4wNzczMTcycy01LjYyMjk5MDYtMzMuMDc3MzE3Mi0xMi41NTkzMDEtMzMuMDc3MzE3Mi0xMi41NTkzMDA5IDE0LjgwOTIxOTQtMTIuNTU5MzAwOSAzMy4wNzczMTcyIDUuNjIyOTkwNSAzMy4wNzczMTcyIDEyLjU1OTMwMDkgMzMuMDc3MzE3MnoiIHRyYW5zZm9ybT0ibWF0cml4KC0uODE5MTUyMDQgLjU3MzU3NjQ0IC41NzM1NzY0NCAuODE5MTUyMDQgNTguMDg0NjExIDQ3LjcwNDc2OCkiLz4mI3hhOzxwYXRoIGQ9Im0xMTYuNzMyODE1IDY2LjI3NTI2NzZjNi45MzYzMTEgMCAxMi41NTkzMDEtMTQuODA5MjE5MyAxMi41NTkzMDEtMzMuMDc3MzE3MiAwLTE4LjI2ODA5NzgtNS42MjI5OS0zMy4wNzczMTcxMy0xMi41NTkzMDEtMzMuMDc3MzE3MTMtNi45MzYzMSAwLTEyLjU1OTMwMSAxNC44MDkyMTkzMy0xMi41NTkzMDEgMzMuMDc3MzE3MTMgMCAxOC4yNjgwOTc5IDUuNjIyOTkxIDMzLjA3NzMxNzIgMTIuNTU5MzAxIDMzLjA3NzMxNzJ6IiB0cmFuc2Zvcm09Im1hdHJpeCgtMSAwIDAgMSAyNzIuNjI4NTI0IDUzLjY3MDc2MikiLz4mI3hhOzwvZz4mI3hhOzxwYXRoIGQ9Im0yNTEuNDY3MDA2IDE3My4wOTk4NDljLTIwLjIzMDA3Ni0zMy42MDk5NjktNTYuODg5NTY1LTU2LjA2NzkwOC05OC43NTU3NzYtNTYuMDY3OTA4LTQwLjcyMDc5OCAwLTc2LjUxNTg3NjYgMjEuMjQ1OTAxLTk3LjA1ODY5NTkgNTMuMzM0NTg4bTIuMTk4MTEwNyAxMjkuMTY5NTM0YzIwLjg0MDMwMzYgMzAuMjMyNzAxIDU1LjU1NTkwNDIgNTAuMDI2NTkxIDk0Ljg2MDU4NTIgNTAuMDI2NTkxIDM5LjM3NjA5OSAwIDc0LjE0NjQyNC0xOS44NjU4ODcgOTQuOTc0MDQ5LTUwLjE5MTQ5NSIgbWFzaz0idXJsKCNhKSIgc3Ryb2tlPSIjMGYxNjg5IiBzdHJva2Utd2lkdGg9IjIwIi8+JiN4YTs8L2c+JiN4YTs8ZyB0cmFuc2Zvcm09InRyYW5zbGF0ZSgxMS45NTgxMzYpIj4mI3hhOzxnIGZpbGw9IiMwZjE2ODkiIG1hc2s9InVybCgjYikiPiYjeGE7PHBhdGggZD0ibTIwMy40NjA2NzYgOTUuNjg3NTQyNWM2LjkzNjMxIDAgMTIuNTU5MzAxLTE0LjgwOTIxOTQgMTIuNTU5MzAxLTMzLjA3NzMxNzJzLTUuNjIyOTkxLTMzLjA3NzMxNzItMTIuNTU5MzAxLTMzLjA3NzMxNzJjLTYuOTM2MzExIDAtMTIuNTU5MzAxIDE0LjgwOTIxOTQtMTIuNTU5MzAxIDMzLjA3NzMxNzJzNS42MjI5OSAzMy4wNzczMTcyIDEyLjU1OTMwMSAzMy4wNzczMTcyeiIgdHJhbnNmb3JtPSJtYXRyaXgoLjgxOTE1MjA0IC41NzM1NzY0NCAtLjU3MzU3NjQ0IC44MTkxNTIwNCAxMTEuODcwMDkxIC01NC4xNjYwMTYpIi8+JiN4YTs8cGF0aCBkPSJtMzAuMTQyMzIyMyA5NS42ODc1NDI1YzYuOTM2MzEwNCAwIDEyLjU1OTMwMS0xNC44MDkyMTk0IDEyLjU1OTMwMS0zMy4wNzczMTcycy01LjYyMjk5MDYtMzMuMDc3MzE3Mi0xMi41NTkzMDEtMzMuMDc3MzE3Mi0xMi41NTkzMDA5IDE0LjgwOTIxOTQtMTIuNTU5MzAwOSAzMy4wNzczMTcyIDUuNjIyOTkwNSAzMy4wNzczMTcyIDEyLjU1OTMwMDkgMzMuMDc3MzE3MnoiIHRyYW5zZm9ybT0ibWF0cml4KC0uODE5MTUyMDQgLjU3MzU3NjQ0IC41NzM1NzY0NCAuODE5MTUyMDQgNTguMDg0NjExIDQ1LjI0NTMwOCkiLz4mI3hhOzxwYXRoIGQ9Im0xMTYuNzMyODE1IDY2LjI3NTI2NzZjNi45MzYzMTEgMCAxMi41NTkzMDEtMTQuODA5MjE5MyAxMi41NTkzMDEtMzMuMDc3MzE3MiAwLTE4LjI2ODA5NzgtNS42MjI5OS0zMy4wNzczMTcxMy0xMi41NTkzMDEtMzMuMDc3MzE3MTMtNi45MzYzMSAwLTEyLjU1OTMwMSAxNC44MDkyMTkzMy0xMi41NTkzMDEgMzMuMDc3MzE3MTMgMCAxOC4yNjgwOTc5IDUuNjIyOTkxIDMzLjA3NzMxNzIgMTIuNTU5MzAxIDMzLjA3NzMxNzJ6IiB0cmFuc2Zvcm09Im1hdHJpeCgtMSAwIDAgMSAyNzIuNjI4NTI0IDUxLjIxMTMwMikiLz4mI3hhOzwvZz4mI3hhOzxwYXRoIGQ9Im0yNTEuNDY3MDA2IDE3MC42NDAzOWMtMjAuMjMwMDc2LTMzLjYwOTk2OS01Ni44ODk1NjUtNTYuMDY3OTA4LTk4Ljc1NTc3Ni01Ni4wNjc5MDgtNDAuNzIwNzk4IDAtNzYuNTE1ODc2NiAyMS4yNDU5LTk3LjA1ODY5NTkgNTMuMzM0NTg3bTIuMTk4MTEwNyAxMjkuMTY5NTM0YzIwLjg0MDMwMzYgMzAuMjMyNzAyIDU1LjU1NTkwNDIgNTAuMDI2NTkxIDk0Ljg2MDU4NTIgNTAuMDI2NTkxIDM5LjM3NjA5OSAwIDc0LjE0NjQyNC0xOS44NjU4ODYgOTQuOTc0MDQ5LTUwLjE5MTQ5NCIgbWFzaz0idXJsKCNiKSIgc3Ryb2tlPSIjMGYxNjg5IiBzdHJva2Utd2lkdGg9IjIwIi8+JiN4YTs8L2c+JiN4YTs8L2c+JiN4YTs8L3N2Zz4=;" vertex="1" parent="1">
          <mxGeometry x="258.31000000000006" y="246.86" width="21.34" height="24.65" as="geometry" />
        </mxCell>
        <mxCell id="JOUDGP8wdA08YXYUOnpO-50" style="edgeStyle=none;rounded=0;orthogonalLoop=1;jettySize=auto;html=1;" edge="1" parent="1">
          <mxGeometry relative="1" as="geometry">
            <mxPoint x="414" y="244.17999999999995" as="targetPoint" />
            <mxPoint x="315.54999999999995" y="244.17999999999995" as="sourcePoint" />
          </mxGeometry>
        </mxCell>
        <mxCell id="JOUDGP8wdA08YXYUOnpO-26" value="" style="shape=image;html=1;verticalAlign=top;verticalLabelPosition=bottom;labelBackgroundColor=#ffffff;imageAspect=0;aspect=fixed;image=https://cdn3.iconfinder.com/data/icons/freeapplication/png/24x24/Notes.png;opacity=50;" vertex="1" parent="1">
          <mxGeometry x="285.55" y="232.17999999999998" width="24" height="24" as="geometry" />
        </mxCell>
        <mxCell id="JOUDGP8wdA08YXYUOnpO-27" value="Chart &amp;amp; Parameters" style="text;html=1;strokeColor=none;fillColor=none;align=center;verticalAlign=middle;whiteSpace=wrap;rounded=0;" vertex="1" parent="1">
          <mxGeometry x="234.6" y="271.51000000000005" width="85" height="30" as="geometry" />
        </mxCell>
        <mxCell id="JOUDGP8wdA08YXYUOnpO-10" value="" style="shape=image;imageAspect=0;aspect=fixed;verticalLabelPosition=bottom;verticalAlign=top;image=data:image/svg+xml,PHN2ZyB4bWxucz0iaHR0cDovL3d3dy53My5vcmcvMjAwMC9zdmciIHhtbG5zOnhsaW5rPSJodHRwOi8vd3d3LnczLm9yZy8xOTk5L3hsaW5rIiBoZWlnaHQ9IjM0OS44NzY2Nzg0NjY3OTY5IiB2aWV3Qm94PSIwLjY3ODU3MTcwMTA0OTgwNDcgMC4zMzE5Mzk2OTcyNjU2MjUgMzAyLjUxMjQyMDY1NDI5NjkgMzQ5Ljg3NjY3ODQ2Njc5NjkiIHdpZHRoPSIzMDIuNTEyNDIwNjU0Mjk2OSI+JiN4YTs8bWFzayBpZD0iYSIgZmlsbD0iI2ZmZiI+JiN4YTs8cGF0aCBkPSJtMCAwaDMxMy4zMDMxNTV2MTU5Ljg2NDg2NWgtMzEzLjMwMzE1NXoiIGZpbGw9IiNmZmYiIGZpbGwtcnVsZT0iZXZlbm9kZCIvPiYjeGE7PC9tYXNrPiYjeGE7PG1hc2sgaWQ9ImIiIGZpbGw9IiNmZmYiPiYjeGE7PHBhdGggZD0ibTAgMGgzMTMuMzAzMTU1djE1OS44NjQ4NjVoLTMxMy4zMDMxNTV6IiBmaWxsPSIjZmZmIiBmaWxsLXJ1bGU9ImV2ZW5vZGQiLz4mI3hhOzwvbWFzaz4mI3hhOzxnIGZpbGw9Im5vbmUiIGZpbGwtcnVsZT0iZXZlbm9kZCIgdHJhbnNmb3JtPSJ0cmFuc2xhdGUoLTExIC01MSkiPiYjeGE7PHBhdGggZD0ibTExLjY3ODU3MTQgMTg5aDE5Ljc4NTgzNTd2MjYuNzg5aDIzLjkwMzd2LTI2Ljc4OWgxOS43ODU4MzU4djc1LjI1aC0xOS43ODU4MzU4di0yOC42OTUzMzNoLTIzLjkwMzd2MjguNjk1MzMzaC0xOS43ODU4MzU3em04Ni4xNzM4NDI5IDc1LjI1di03NS4yNWg0Ni44MDMwNDI3djE2LjM1NDMzM2gtMjcuMDE3MjA3djEyLjI0MDY2N2gyMy45MDM3djE2LjY1NTMzM2gtMjMuOTAzN3YxMy44NDZoMjcuMDE3MjA3djE2LjE1MzY2N3ptNjguNDk3MTU2NyAwdi03NS4yNWgxOS43ODU4MzZ2NTUuMzg0aDI3LjExNzY0M3YxOS44NjZ6bTc3LjUzNjM3Mi03NS4yNSAzMC43MzMzMjggMjcuODkyNjY3IDMwLjYzMjg5My0yNy44OTI2NjdoOC45Mzg3Nzl2NzUuMjVoLTE5Ljg4NjI3MnYtMzguNjI4MzMzbC0xOS42ODU0IDE3Ljk1OTY2Ni0xOS43ODU4MzUtMTcuODU5MzMzdjM4LjUyOGgtMTkuODg2Mjcydi03NS4yNXoiIGZpbGw9IiMwZjE2ODkiLz4mI3hhOzxnIHRyYW5zZm9ybT0ibWF0cml4KDEgMCAwIC0xIDExLjk1ODEzNiA0NTUpIj4mI3hhOzxnIGZpbGw9IiMwZjE2ODkiIG1hc2s9InVybCgjYSkiPiYjeGE7PHBhdGggZD0ibTIwMy40NjA2NzYgOTUuNjg3NTQyNWM2LjkzNjMxIDAgMTIuNTU5MzAxLTE0LjgwOTIxOTQgMTIuNTU5MzAxLTMzLjA3NzMxNzJzLTUuNjIyOTkxLTMzLjA3NzMxNzItMTIuNTU5MzAxLTMzLjA3NzMxNzJjLTYuOTM2MzExIDAtMTIuNTU5MzAxIDE0LjgwOTIxOTQtMTIuNTU5MzAxIDMzLjA3NzMxNzJzNS42MjI5OSAzMy4wNzczMTcyIDEyLjU1OTMwMSAzMy4wNzczMTcyeiIgdHJhbnNmb3JtPSJtYXRyaXgoLjgxOTE1MjA0IC41NzM1NzY0NCAtLjU3MzU3NjQ0IC44MTkxNTIwNCAxMTEuODcwMDkxIC01MS43MDY1NTYpIi8+JiN4YTs8cGF0aCBkPSJtMzAuMTQyMzIyMyA5NS42ODc1NDI1YzYuOTM2MzEwNCAwIDEyLjU1OTMwMS0xNC44MDkyMTk0IDEyLjU1OTMwMS0zMy4wNzczMTcycy01LjYyMjk5MDYtMzMuMDc3MzE3Mi0xMi41NTkzMDEtMzMuMDc3MzE3Mi0xMi41NTkzMDA5IDE0LjgwOTIxOTQtMTIuNTU5MzAwOSAzMy4wNzczMTcyIDUuNjIyOTkwNSAzMy4wNzczMTcyIDEyLjU1OTMwMDkgMzMuMDc3MzE3MnoiIHRyYW5zZm9ybT0ibWF0cml4KC0uODE5MTUyMDQgLjU3MzU3NjQ0IC41NzM1NzY0NCAuODE5MTUyMDQgNTguMDg0NjExIDQ3LjcwNDc2OCkiLz4mI3hhOzxwYXRoIGQ9Im0xMTYuNzMyODE1IDY2LjI3NTI2NzZjNi45MzYzMTEgMCAxMi41NTkzMDEtMTQuODA5MjE5MyAxMi41NTkzMDEtMzMuMDc3MzE3MiAwLTE4LjI2ODA5NzgtNS42MjI5OS0zMy4wNzczMTcxMy0xMi41NTkzMDEtMzMuMDc3MzE3MTMtNi45MzYzMSAwLTEyLjU1OTMwMSAxNC44MDkyMTkzMy0xMi41NTkzMDEgMzMuMDc3MzE3MTMgMCAxOC4yNjgwOTc5IDUuNjIyOTkxIDMzLjA3NzMxNzIgMTIuNTU5MzAxIDMzLjA3NzMxNzJ6IiB0cmFuc2Zvcm09Im1hdHJpeCgtMSAwIDAgMSAyNzIuNjI4NTI0IDUzLjY3MDc2MikiLz4mI3hhOzwvZz4mI3hhOzxwYXRoIGQ9Im0yNTEuNDY3MDA2IDE3My4wOTk4NDljLTIwLjIzMDA3Ni0zMy42MDk5NjktNTYuODg5NTY1LTU2LjA2NzkwOC05OC43NTU3NzYtNTYuMDY3OTA4LTQwLjcyMDc5OCAwLTc2LjUxNTg3NjYgMjEuMjQ1OTAxLTk3LjA1ODY5NTkgNTMuMzM0NTg4bTIuMTk4MTEwNyAxMjkuMTY5NTM0YzIwLjg0MDMwMzYgMzAuMjMyNzAxIDU1LjU1NTkwNDIgNTAuMDI2NTkxIDk0Ljg2MDU4NTIgNTAuMDI2NTkxIDM5LjM3NjA5OSAwIDc0LjE0NjQyNC0xOS44NjU4ODcgOTQuOTc0MDQ5LTUwLjE5MTQ5NSIgbWFzaz0idXJsKCNhKSIgc3Ryb2tlPSIjMGYxNjg5IiBzdHJva2Utd2lkdGg9IjIwIi8+JiN4YTs8L2c+JiN4YTs8ZyB0cmFuc2Zvcm09InRyYW5zbGF0ZSgxMS45NTgxMzYpIj4mI3hhOzxnIGZpbGw9IiMwZjE2ODkiIG1hc2s9InVybCgjYikiPiYjeGE7PHBhdGggZD0ibTIwMy40NjA2NzYgOTUuNjg3NTQyNWM2LjkzNjMxIDAgMTIuNTU5MzAxLTE0LjgwOTIxOTQgMTIuNTU5MzAxLTMzLjA3NzMxNzJzLTUuNjIyOTkxLTMzLjA3NzMxNzItMTIuNTU5MzAxLTMzLjA3NzMxNzJjLTYuOTM2MzExIDAtMTIuNTU5MzAxIDE0LjgwOTIxOTQtMTIuNTU5MzAxIDMzLjA3NzMxNzJzNS42MjI5OSAzMy4wNzczMTcyIDEyLjU1OTMwMSAzMy4wNzczMTcyeiIgdHJhbnNmb3JtPSJtYXRyaXgoLjgxOTE1MjA0IC41NzM1NzY0NCAtLjU3MzU3NjQ0IC44MTkxNTIwNCAxMTEuODcwMDkxIC01NC4xNjYwMTYpIi8+JiN4YTs8cGF0aCBkPSJtMzAuMTQyMzIyMyA5NS42ODc1NDI1YzYuOTM2MzEwNCAwIDEyLjU1OTMwMS0xNC44MDkyMTk0IDEyLjU1OTMwMS0zMy4wNzczMTcycy01LjYyMjk5MDYtMzMuMDc3MzE3Mi0xMi41NTkzMDEtMzMuMDc3MzE3Mi0xMi41NTkzMDA5IDE0LjgwOTIxOTQtMTIuNTU5MzAwOSAzMy4wNzczMTcyIDUuNjIyOTkwNSAzMy4wNzczMTcyIDEyLjU1OTMwMDkgMzMuMDc3MzE3MnoiIHRyYW5zZm9ybT0ibWF0cml4KC0uODE5MTUyMDQgLjU3MzU3NjQ0IC41NzM1NzY0NCAuODE5MTUyMDQgNTguMDg0NjExIDQ1LjI0NTMwOCkiLz4mI3hhOzxwYXRoIGQ9Im0xMTYuNzMyODE1IDY2LjI3NTI2NzZjNi45MzYzMTEgMCAxMi41NTkzMDEtMTQuODA5MjE5MyAxMi41NTkzMDEtMzMuMDc3MzE3MiAwLTE4LjI2ODA5NzgtNS42MjI5OS0zMy4wNzczMTcxMy0xMi41NTkzMDEtMzMuMDc3MzE3MTMtNi45MzYzMSAwLTEyLjU1OTMwMSAxNC44MDkyMTkzMy0xMi41NTkzMDEgMzMuMDc3MzE3MTMgMCAxOC4yNjgwOTc5IDUuNjIyOTkxIDMzLjA3NzMxNzIgMTIuNTU5MzAxIDMzLjA3NzMxNzJ6IiB0cmFuc2Zvcm09Im1hdHJpeCgtMSAwIDAgMSAyNzIuNjI4NTI0IDUxLjIxMTMwMikiLz4mI3hhOzwvZz4mI3hhOzxwYXRoIGQ9Im0yNTEuNDY3MDA2IDE3MC42NDAzOWMtMjAuMjMwMDc2LTMzLjYwOTk2OS01Ni44ODk1NjUtNTYuMDY3OTA4LTk4Ljc1NTc3Ni01Ni4wNjc5MDgtNDAuNzIwNzk4IDAtNzYuNTE1ODc2NiAyMS4yNDU5LTk3LjA1ODY5NTkgNTMuMzM0NTg3bTIuMTk4MTEwNyAxMjkuMTY5NTM0YzIwLjg0MDMwMzYgMzAuMjMyNzAyIDU1LjU1NTkwNDIgNTAuMDI2NTkxIDk0Ljg2MDU4NTIgNTAuMDI2NTkxIDM5LjM3NjA5OSAwIDc0LjE0NjQyNC0xOS44NjU4ODYgOTQuOTc0MDQ5LTUwLjE5MTQ5NCIgbWFzaz0idXJsKCNiKSIgc3Ryb2tlPSIjMGYxNjg5IiBzdHJva2Utd2lkdGg9IjIwIi8+JiN4YTs8L2c+JiN4YTs8L2c+JiN4YTs8L3N2Zz4=;" vertex="1" parent="1">
          <mxGeometry x="437.16" y="62.349999999999994" width="21.34" height="24.65" as="geometry" />
        </mxCell>
        <mxCell id="JOUDGP8wdA08YXYUOnpO-41" value="" style="verticalLabelPosition=bottom;html=1;verticalAlign=top;align=center;strokeColor=none;fillColor=#000000;shape=mxgraph.azure.cloud_services_configuration_file;pointerEvents=1;opacity=20;" vertex="1" parent="1">
          <mxGeometry x="255.64999999999998" y="43.68000000000001" width="26.65" height="30" as="geometry" />
        </mxCell>
      </root>
    </mxGraphModel>
  </diagram>
</mxfile>
